# xmcd CD database file
#
# Track frame offsets:
#	150
#	17932
#	27427
#	43275
#	67954
#	105614
#	116434
#	141548
#	168090
#	186226
#	203500
#	220051
#	239222
#
# Disc length: 3324 seconds
#
# Revision: 0
# Processed by: cddbd v1.5.2PL0 Copyright (c) Steve Scherf et al.
# Submitted via: CDex 1.70beta2
#
DISCID=c00cfa0d
DTITLE=CRAM - for a dog
DYEAR=2008
DGENRE=Blues
TTITLE0=Next day
TTITLE1=Breakfast
TTITLE2=Pinguin village
TTITLE3=De trein naar Ulan Bator
TTITLE4=Blues for Penelope
TTITLE5=Hop
TTITLE6=Wrong train
TTITLE7=Downunder
TTITLE8=Kortjakje
TTITLE9=Een stukje structuur
TTITLE10=For a dog
TTITLE11=Silver
TTITLE12=The lake isle of Innisfree
EXTD=YEAR: 2008
EXTT0=
EXTT1=
EXTT2=
EXTT3=
EXTT4=
EXTT5=
EXTT6=
EXTT7=
EXTT8=
EXTT9=
EXTT10=
EXTT11=
EXTT12=
PLAYORDER=
